<?xml version="1.0" encoding="utf-8"?>
<!-- Generator: Adobe Illustrator 24.0.3, SVG Export Plug-In . SVG Version: 6.00 Build 0)  -->
<svg version="1.1" id="レイヤー_1" xmlns="http://www.w3.org/2000/svg" xmlns:xlink="http://www.w3.org/1999/xlink" x="0px"
	 y="0px" viewBox="0 0 209.8 54.34" style="enable-background:new 0 0 209.8 54.34;" xml:space="preserve">
<style type="text/css">
	.st0{fill:#FFFFFF;stroke:#000000;stroke-miterlimit:10;}
	.st1{fill:#040001;stroke:#000000;stroke-miterlimit:10;}
	.st2{fill:#070002;stroke:#000000;stroke-miterlimit:10;}
	.st3{stroke:#000000;stroke-miterlimit:10;}
</style>
<g>
	<path class="st0" d="M36.39,27.01c-1.89,1.14-4.21,2.01-6.98,2.62c1.86,0.98,3.63,2.43,5.32,4.35c1.69,1.92,3.2,3.96,4.53,6.12
		c1.33,2.17,2.37,4.13,3.11,5.87c0.74,1.74,1.11,2.94,1.11,3.6c0,0.68-0.21,1.35-0.64,2.02c-0.44,0.67-1.03,1.2-1.77,1.59
		c-0.75,0.39-1.62,0.58-2.6,0.58c-1.18,0.01-2.16-0.27-2.96-0.81c-0.8-0.55-1.49-1.25-2.06-2.09c-0.58-0.84-1.36-2.09-2.35-3.72
		l-4.2-6.96c-1.5-2.55-2.85-4.49-4.03-5.82c-1.19-1.34-2.39-2.25-3.61-2.74c-1.22-0.49-2.76-0.73-4.61-0.73l-3.66,0.01l0.04,16.56
		c0,2.18-0.47,3.79-1.43,4.82c-0.96,1.03-2.21,1.55-3.76,1.56c-1.66,0-2.95-0.54-3.87-1.61c-0.92-1.08-1.38-2.66-1.38-4.75
		L0.54,27.01"/>
	<path class="st1" d="M41.52,10.18c-0.65-1.67-1.6-3.14-2.84-4.41c-1.25-1.26-2.68-2.23-4.3-2.9c-1.34-0.61-2.84-1.01-4.5-1.21
		c-1.67-0.19-3.67-0.29-6.01-0.28L6.89,1.41C4.64,1.42,3.01,1.93,2,2.94C1,3.95,0.5,5.58,0.5,7.83l0.04,19.18h35.85
		c1.11-0.67,2.07-1.43,2.87-2.29c2.17-2.3,3.24-5.37,3.23-9.22C42.49,13.63,42.16,11.85,41.52,10.18z M30.57,20.5
		c-0.9,1.05-2.21,1.79-3.92,2.23c-1.71,0.44-3.81,0.66-6.32,0.66l-9.35,0.02L10.95,9.25l9.63-0.03c3.58,0,5.99,0.25,7.21,0.76
		c1.29,0.54,2.3,1.35,3.03,2.44c0.72,1.09,1.09,2.35,1.09,3.78C31.92,18.02,31.47,19.46,30.57,20.5z"/>
	<path class="st0" d="M100.49,26.75v0.33c0,3.99-0.54,7.61-1.61,10.87c-1.08,3.25-2.7,6.08-4.86,8.47c-2.15,2.39-4.8,4.22-7.94,5.48
		c-3.14,1.27-6.74,1.9-10.79,1.9c-4.03,0-7.64-0.65-10.83-1.95s-5.85-3.13-7.98-5.5s-3.75-5.22-4.84-8.55
		c-1.09-3.32-1.63-6.92-1.63-10.79c0-0.09,0.01-0.17,0.01-0.26H60.6c0,0.09-0.01,0.17-0.01,0.26c0,2.93,0.37,5.58,1.11,7.95
		c0.74,2.36,1.78,4.33,3.13,5.89c1.35,1.55,2.89,2.72,4.64,3.49c1.74,0.78,3.66,1.16,5.75,1.16c2.67,0,5.12-0.66,7.36-2
		c2.24-1.34,4.02-3.4,5.35-6.19c1.32-2.79,1.98-6.22,1.98-10.3v-0.26H100.49z"/>
	<path class="st2" d="M100.49,26.75H89.91c-0.03-3.66-0.64-6.85-1.83-9.55c-1.22-2.76-2.96-4.85-5.22-6.27S78.01,8.8,75.08,8.8
		c-2.09,0-4.02,0.39-5.79,1.18c-1.77,0.78-3.29,1.93-4.57,3.43c-1.28,1.5-2.28,3.41-3.02,5.74c-0.72,2.27-1.08,4.8-1.1,7.6H50.02
		c0.02-3.86,0.58-7.41,1.69-10.64c1.14-3.3,2.79-6.11,4.94-8.43c2.16-2.32,4.78-4.1,7.88-5.33c3.09-1.23,6.61-1.85,10.55-1.85
		c5.34,0,9.93,1.09,13.76,3.26c3.83,2.16,6.73,5.25,8.7,9.24C99.47,16.91,100.45,21.5,100.49,26.75z"/>
	<path class="st0" d="M150.36,10.22c-0.64-1.67-1.59-3.14-2.83-4.41c-1.24-1.26-2.67-2.24-4.29-2.92c-1.33-0.6-2.83-1.01-4.5-1.21
		c-1.66-0.2-3.66-0.3-6.01-0.3h-16.98c-2.25,0-3.88,0.51-4.89,1.51c-1,1.01-1.51,2.64-1.51,4.89V27.8h34.43
		c1.73-0.83,3.17-1.84,4.3-3.04c2.17-2.3,3.25-5.37,3.25-9.21C151.33,13.68,151.01,11.9,150.36,10.22z M139.39,20.53
		c-0.9,1.04-2.21,1.78-3.92,2.21c-1.71,0.43-3.82,0.65-6.32,0.65h-9.36V9.22h9.64c3.58,0,5.99,0.26,7.2,0.78
		c1.29,0.54,2.3,1.35,3.03,2.44c0.72,1.09,1.09,2.35,1.09,3.78C140.75,18.05,140.3,19.48,139.39,20.53z"/>
	<path class="st2" d="M152.24,49.62c0,0.68-0.21,1.35-0.65,2.02c-0.43,0.67-1.02,1.19-1.77,1.58c-0.75,0.39-1.62,0.58-2.6,0.58
		c-1.18,0-2.16-0.28-2.96-0.83c-0.79-0.55-1.48-1.24-2.05-2.09c-0.58-0.84-1.36-2.08-2.34-3.72l-4.19-6.96
		c-1.5-2.56-2.84-4.5-4.02-5.84s-2.39-2.25-3.6-2.74c-1.22-0.5-2.76-0.74-4.61-0.74h-3.66v16.56c0,2.18-0.48,3.78-1.44,4.81
		c-0.96,1.04-2.21,1.55-3.76,1.55c-1.66,0-2.95-0.54-3.87-1.62c-0.91-1.07-1.37-2.66-1.37-4.74V27.8h34.43
		c-1.6,0.77-3.45,1.39-5.56,1.85c1.85,0.98,3.62,2.44,5.3,4.36c1.69,1.92,3.2,3.97,4.52,6.13c1.33,2.17,2.36,4.13,3.1,5.87
		C151.87,47.76,152.24,48.96,152.24,49.62z"/>
	<path class="st0" d="M209.3,27.08c0,3.99-0.54,7.61-1.62,10.87c-1.07,3.25-2.69,6.08-4.85,8.47c-2.15,2.39-4.8,4.22-7.94,5.48
		c-3.14,1.27-6.74,1.9-10.79,1.9c-4.04,0-7.65-0.65-10.83-1.95c-3.19-1.3-5.85-3.13-7.98-5.5c-2.14-2.37-3.75-5.22-4.84-8.55
		c-1.09-3.32-1.63-6.92-1.63-10.79c0-0.09,0.01-0.17,0.01-0.26h10.58c0,0.09-0.01,0.17-0.01,0.26c0,2.93,0.37,5.58,1.11,7.95
		c0.74,2.36,1.78,4.33,3.13,5.89c1.34,1.55,2.89,2.72,4.64,3.49c1.74,0.78,3.66,1.16,5.74,1.16c2.68,0,5.13-0.66,7.37-2
		c2.24-1.34,4.02-3.4,5.34-6.19c1.33-2.79,1.99-6.22,1.99-10.3c0-0.09,0-0.17-0.01-0.26h10.58C209.3,26.86,209.3,26.97,209.3,27.08z
		"/>
	<path class="st1" d="M209.29,26.75h-10.58c-0.02-3.66-0.63-6.85-1.82-9.55c-1.22-2.76-2.96-4.85-5.22-6.27s-4.86-2.13-7.79-2.13
		c-2.08,0-4.01,0.39-5.78,1.18c-1.77,0.78-3.29,1.93-4.57,3.43s-2.28,3.41-3.02,5.74c-0.72,2.27-1.08,4.8-1.1,7.6h-10.58
		c0.02-3.86,0.58-7.41,1.69-10.64c1.14-3.3,2.79-6.11,4.94-8.43c2.16-2.32,4.78-4.1,7.88-5.33c3.09-1.23,6.61-1.85,10.54-1.85
		c5.35,0,9.94,1.09,13.77,3.26c3.83,2.16,6.73,5.25,8.7,9.24C208.28,16.91,209.25,21.5,209.29,26.75z"/>
	<rect x="0.54" y="27.01" class="st3" width="28.87" height="2.62"/>
	<rect x="29.68" y="27.41" class="st0" width="4.63" height="0.42"/>
	<rect x="29.41" y="25.8" class="st3" width="2.5" height="2.5"/>
	<rect x="28.79" y="23.41" class="st3" width="1.87" height="5.67"/>
	<rect x="1.61" y="26.53" class="st3" width="6.82" height="2.81"/>
</g>
</svg>
